<?xml version="1.0" encoding="UTF-8" standalone="no"?>
<!-- Created with Inkscape (http://www.inkscape.org/) -->

<svg
   width="210mm"
   height="198mm"
   viewBox="0 0 210 198.00001"
   version="1.1"
   id="svg5"
   inkscape:version="1.1.2 (0a00cf5339, 2022-02-04, custom)"
   sodipodi:docname="drawing.svg"
   xmlns:inkscape="http://www.inkscape.org/namespaces/inkscape"
   xmlns:sodipodi="http://sodipodi.sourceforge.net/DTD/sodipodi-0.dtd"
   xmlns="http://www.w3.org/2000/svg"
   xmlns:svg="http://www.w3.org/2000/svg">
  <sodipodi:namedview
     id="namedview7"
     pagecolor="#ffffff"
     bordercolor="#666666"
     borderopacity="1.0"
     inkscape:pageshadow="2"
     inkscape:pageopacity="0.0"
     inkscape:pagecheckerboard="0"
     inkscape:document-units="mm"
     showgrid="false"
     inkscape:zoom="1.2953002"
     inkscape:cx="383.30882"
     inkscape:cy="389.48499"
     inkscape:window-width="1869"
     inkscape:window-height="1052"
     inkscape:window-x="51"
     inkscape:window-y="0"
     inkscape:window-maximized="1"
     inkscape:current-layer="layer1"
     units="mm"
     scale-x="1"
     width="300mm" />
  <defs
     id="defs2">
    <rect
       x="711.32269"
       y="132.39589"
       width="2990.2805"
       height="820.56287"
       id="rect6948" />
    <inkscape:path-effect
       effect="spiro"
       id="path-effect21681"
       is_visible="true"
       lpeversion="1" />
    <inkscape:path-effect
       effect="spiro"
       id="path-effect9851"
       is_visible="true"
       lpeversion="1" />
    <inkscape:path-effect
       effect="bspline"
       id="path-effect6934"
       is_visible="true"
       lpeversion="1"
       weight="33.333333"
       steps="2"
       helper_size="0"
       apply_no_weight="true"
       apply_with_weight="true"
       only_selected="false" />
    <linearGradient
       id="linearGradient1344"
       inkscape:swatch="solid">
      <stop
         style="stop-color:#000000;stop-opacity:1;"
         offset="0"
         id="stop1342" />
    </linearGradient>
    <inkscape:path-effect
       effect="spiro"
       id="path-effect9851-2"
       is_visible="true"
       lpeversion="1" />
  </defs>
  <g
     inkscape:groupmode="layer"
     id="layer2"
     inkscape:label="Layer 2">
    <path
       style="opacity:1;fill:#824925;fill-opacity:1;stroke:#824925;stroke-width:0.453334;stroke-linecap:round;stroke-linejoin:round;stroke-miterlimit:4;stroke-dasharray:none;stroke-opacity:1"
       d="M 94.435257,99.930587 C 80.428218,99.562466 68.345572,97.825066 65.598017,95.783984 l -0.370048,-0.274896 0.01999,-1.76135 c 0.02957,-2.604245 0.343943,-5.059788 1.036705,-8.097293 2.615231,-11.466862 10.120726,-21.193657 20.083159,-26.026902 6.252769,-3.033517 13.080231,-4.048911 19.865057,-2.954386 0.63915,0.103104 1.22747,0.21169 1.30738,0.241293 0.0968,0.03586 -0.0613,0.342625 -0.47419,0.919835 -0.34072,0.476304 -0.60235,0.922234 -0.58141,0.990964 0.0209,0.06872 0.12657,0.18332 0.23473,0.254657 0.16296,0.10749 0.247,0.05713 0.49062,-0.293997 2.39861,-3.457122 6.28525,-5.569897 10.24317,-5.568179 5.73581,0.0024 10.58854,3.875939 12.20831,9.744676 0.28043,1.016051 0.30071,1.240542 0.30071,3.329096 0,2.09902 -0.0191,2.30719 -0.30351,3.31703 -0.36125,1.282426 -0.88266,2.548987 -1.44575,3.511812 -0.45534,0.778599 -0.47815,1.100451 -0.078,1.100451 0.21199,0 0.37403,-0.204939 0.84626,-1.070267 l 0.58409,-1.070268 0.57324,0.888679 c 1.41421,2.192416 2.90859,5.266689 3.90383,8.031093 1.50103,4.169273 2.24191,8.084741 2.46603,13.032707 l 0.0749,1.653267 -0.81519,0.427861 c -3.78916,1.988792 -14.90381,3.460355 -28.92652,3.829854 -4.99628,0.131649 -7.108508,0.130089 -12.406336,-0.0091 z m -1.870677,-8.16514 c 1.550657,-0.465529 2.490176,-1.186694 2.490176,-1.911439 0,-0.777864 -0.755606,-1.163029 -2.788779,-1.421575 -1.368876,-0.174068 -3.997301,-0.08387 -4.832168,0.165825 -1.055287,0.315624 -1.453059,1.110752 -0.938086,1.875192 0.412719,0.61265 1.597653,1.255519 2.803958,1.521247 0.524508,0.115545 2.602399,-0.03034 3.264899,-0.22925 z m 4.145515,-8.501708 c 1.522286,-3.124056 4.425475,-4.698589 7.297885,-3.957985 1.16466,0.300292 2.16744,0.953568 3.19276,2.079966 0.9226,1.013563 1.16512,1.164488 1.29164,0.803834 0.0941,-0.268383 -0.17312,-0.690833 -0.9849,-1.556694 -2.9792,-3.177674 -7.63353,-2.924278 -10.318079,0.561753 -0.657182,0.853386 -1.408755,2.332478 -1.31745,2.592742 0.140359,0.400077 0.496449,0.177618 0.838144,-0.523616 z M 85.647421,82.528594 c 0,-0.588429 -0.619452,-1.75182 -1.324353,-2.487262 -1.788769,-1.866272 -4.436388,-2.131017 -6.561207,-0.656079 -0.329886,0.228989 -0.525704,0.451815 -0.525704,0.598207 0,0.33396 0.311882,0.418674 0.650304,0.17664 0.159737,-0.114246 0.549585,-0.343443 0.866333,-0.509333 2.495418,-1.306926 5.444384,0.107834 6.273761,3.009817 0.03673,0.128523 0.170736,0.21185 0.340707,0.21185 0.234004,0 0.280159,-0.05666 0.280159,-0.34384 z M 121.74665,69.167255 c 0.36819,0.01695 0.43872,-0.0342 0.74509,-0.540098 1.96031,-3.237181 0.50448,-7.432939 -2.97033,-8.560635 -0.85275,-0.276752 -2.34993,-0.255855 -3.24114,0.04522 -0.39124,0.132179 -1.0083,0.450263 -1.37123,0.706846 -1.06904,0.755782 -1.97284,2.064605 -1.59982,2.316773 0.0736,0.04973 0.18169,0.323553 0.24021,0.608454 0.18882,0.919241 0.87218,2.265093 1.57847,3.108753 1.44359,1.724356 3.32916,2.554854 5.382,2.370485 0.45653,-0.04101 1.01307,-0.06612 1.23675,-0.05583 z"
       id="path26233" />
    <path
       style="opacity:1;fill:#824925;fill-opacity:1;stroke:#824925;stroke-width:0.43748;stroke-linecap:round;stroke-linejoin:round;stroke-miterlimit:4;stroke-dasharray:none;stroke-opacity:1"
       d="m 69.599422,73.225054 c -1.17128,-1.401803 -2.072134,-3.189633 -2.611219,-5.182212 -0.422066,-1.560054 -0.498788,-4.215903 -0.168932,-5.847798 1.096881,-5.426606 5.20587,-9.521494 10.416426,-10.380676 3.684479,-0.607547 7.500722,0.594201 10.322348,3.250541 0.700592,0.659552 1.962985,2.200286 1.962985,2.395797 0,0.04641 -0.13696,0.121861 -0.304355,0.167667 -0.748972,0.20497 -2.556397,1.016099 -4.262459,1.912885 l -1.855289,0.975236 -0.38451,-0.491358 c -1.138957,-1.455451 -3.315659,-2.247188 -5.0909,-1.851723 -2.535541,0.564835 -4.263312,2.811378 -4.287843,5.575297 -0.01132,1.275402 0.234366,2.195652 0.8576,3.212254 l 0.451897,0.73712 -0.755398,0.898723 c -0.915295,1.088966 -2.265938,2.966156 -3.103995,4.314094 l -0.618132,0.994212 z"
       id="path26309" />
    <path
       style="opacity:1;fill:#6c5d53;fill-opacity:1;stroke:#6c5d53;stroke-width:0.43748;stroke-linecap:round;stroke-linejoin:round;stroke-miterlimit:4;stroke-dasharray:none;stroke-opacity:1"
       d="m 97.268248,140.13099 c -9.264001,-1.21931 -16.764937,-4.57383 -23.795026,-10.64149 -1.229521,-1.06119 -4.473449,-4.51408 -5.848744,-6.22549 -2.081871,-2.59066 -4.41312,-6.39623 -5.944208,-9.7034 -2.077471,-4.48737 -3.549558,-9.36159 -4.309741,-14.269967 -0.286966,-1.8529 -0.336877,-2.496551 -0.193592,-2.496551 0.04595,0 0.451844,0.303059 0.901984,0.673462 4.207708,3.462366 16.305121,6.157756 31.774133,7.079496 5.858107,0.34906 16.916636,0.34683 22.999086,-0.005 15.7226,-0.90853 27.57235,-3.54275 32.05237,-7.125311 0.42107,-0.336722 0.80377,-0.586413 0.85043,-0.554866 0.0929,0.0628 0.0749,0.24329 -0.24734,2.474081 -0.78934,5.465026 -2.90645,11.811116 -5.63565,16.892946 -5.36327,9.98652 -13.9321,17.62736 -24.01887,21.41767 -2.89997,1.08972 -6.45743,1.981 -9.45419,2.36864 -1.31121,0.16962 -8.069779,0.25505 -9.130642,0.11542 z"
       id="path32191" />
    <path
       style="opacity:1;fill:#6c5d53;fill-opacity:1;stroke:#6c5d53;stroke-width:0.453334;stroke-linecap:round;stroke-linejoin:round;stroke-miterlimit:4;stroke-dasharray:none;stroke-opacity:1"
       d="m 92.121883,104.16621 c -18.137234,-0.9985 -30.937238,-3.88693 -34.369854,-7.75585 -0.604642,-0.681493 -0.824001,-1.3657 -0.656279,-2.047009 0.208104,-0.845349 1.320159,-1.947881 2.821062,-2.796905 1.54346,-0.873097 4.728808,-2.168408 4.892393,-1.989474 0.05737,0.06276 -0.109399,2.712624 -0.30475,4.842267 -0.06022,0.656583 -0.05843,1.157464 0.0046,1.286313 0.142297,0.290828 1.048645,0.909641 1.861401,1.270881 3.236852,1.438644 9.610526,2.476147 20.110687,3.273617 5.15188,0.39127 22.243557,0.4284 27.886307,0.0606 11.98226,-0.781072 20.15778,-2.245352 22.43373,-4.018009 l 0.34342,-0.267482 -0.0709,-2.140938 c -0.039,-1.177514 -0.12619,-2.696925 -0.19377,-3.376462 -0.0676,-0.679531 -0.0917,-1.269618 -0.0536,-1.311294 0.0381,-0.04166 0.62824,0.102902 1.31144,0.321284 3.72127,1.189521 6.51399,2.759621 7.34158,4.127514 0.95619,1.580453 0.0506,3.022368 -2.88987,4.60131 -5.74957,3.087357 -17.30655,5.204607 -32.37231,5.930627 -2.89508,0.13951 -15.500562,0.13187 -18.095282,-0.0109 z"
       id="path32423" />
  </g>
  <g
     inkscape:label="Layer 1"
     inkscape:groupmode="layer"
     id="layer1">
    <path
       style="opacity:1;fill:none;fill-opacity:1;stroke:#000000;stroke-width:1;stroke-miterlimit:4;stroke-dasharray:none;stroke-opacity:1"
       id="path1318"
       sodipodi:type="arc"
       sodipodi:cx="101.44116"
       sodipodi:cy="91.326248"
       sodipodi:rx="44.862762"
       sodipodi:ry="49.190266"
       sodipodi:start="0.06981317"
       sodipodi:end="3.0682888"
       sodipodi:arc-type="arc"
       d="M 146.19464,94.757588 A 44.862762,49.190266 0 0 1 101.51946,140.51644 44.862762,49.190266 0 0 1 56.69888,94.928856"
       sodipodi:open="true" />
    <path
       style="opacity:1;fill:none;stroke:#000000;stroke-width:0.8;stroke-miterlimit:4;stroke-dasharray:none;stroke-opacity:1"
       id="path4270"
       sodipodi:type="arc"
       sodipodi:cx="101.44699"
       sodipodi:cy="94.813744"
       sodipodi:rx="44.739227"
       sodipodi:ry="9.8919983"
       sodipodi:start="5.6147242"
       sodipodi:end="3.7716565"
       sodipodi:arc-type="arc"
       d="m 136.55728,88.68289 a 44.739227,9.8919983 0 0 1 -4.31384,13.30626 44.739227,9.8919983 0 0 1 -60.324413,0.2561 44.739227,9.8919983 0 0 1 -6.620879,-13.259836"
       sodipodi:open="true" />
    <path
       style="opacity:1;fill:none;stroke:#000000;stroke-width:0.8;stroke-linecap:round;stroke-miterlimit:4;stroke-dasharray:none;stroke-opacity:1"
       id="path4457"
       sodipodi:type="arc"
       sodipodi:cx="100.9631"
       sodipodi:cy="94.923615"
       sodipodi:rx="36.4342"
       sodipodi:ry="5.4571567"
       sodipodi:start="0.17453293"
       sodipodi:end="3.0578168"
       sodipodi:arc-type="arc"
       d="M 136.84378,95.87124 A 36.4342,5.4571567 0 0 1 99.310333,100.37515 36.4342,5.4571567 0 0 1 64.656676,95.380258"
       sodipodi:open="true" />
    <path
       style="opacity:1;fill:none;stroke:#000000;stroke-width:0.8;stroke-linecap:round;stroke-miterlimit:4;stroke-dasharray:none;stroke-opacity:1"
       id="path4561"
       sodipodi:type="arc"
       sodipodi:cx="100.90322"
       sodipodi:cy="95.185349"
       sodipodi:rx="36.054379"
       sodipodi:ry="39.318432"
       sodipodi:start="3.1415927"
       sodipodi:end="4.9218285"
       sodipodi:arc-type="arc"
       d="M 64.848843,95.185349 A 36.054379,39.318432 0 0 1 78.213466,64.629187 36.054379,39.318432 0 0 1 108.39935,56.726119"
       sodipodi:open="true" />
    <path
       style="opacity:1;fill:none;stroke:#000000;stroke-width:0.8;stroke-linecap:round;stroke-miterlimit:4;stroke-dasharray:none;stroke-opacity:1"
       id="path4561-6"
       sodipodi:type="arc"
       sodipodi:cx="100.90322"
       sodipodi:cy="95.185036"
       sodipodi:rx="35.946022"
       sodipodi:ry="39.318432"
       sodipodi:start="5.6286868"
       sodipodi:end="0.017453293"
       sodipodi:arc-type="arc"
       sodipodi:open="true"
       d="m 129.42112,71.24949 a 35.946022,39.318432 0 0 1 7.42265,24.621747" />
    <path
       style="fill:#000000;fill-opacity:1;stroke:#000000;stroke-width:0.453334;stroke-linecap:butt;stroke-linejoin:miter;stroke-miterlimit:4;stroke-dasharray:none;stroke-opacity:1"
       d="m 87.061437,89.122456 c 1.461156,-0.759078 6.452587,-0.546458 7.48706,0.318866 1.034474,0.865324 -1.887789,2.38332 -4.38347,2.277072 -2.495681,-0.106247 -4.564747,-1.83686 -3.10359,-2.595938 z"
       id="path6932"
       inkscape:path-effect="#path-effect6934"
       inkscape:original-d="m 83.531011,88.150751 c 4.991576,0.212775 9.983006,0.425401 14.974297,0.637861 -2.92224,1.51822 -5.844505,3.036213 -8.766973,4.554083 -2.069007,-1.730526 -4.138073,-3.46114 -6.207324,-5.191944 z" />
    <path
       style="opacity:1;fill:none;fill-opacity:1;stroke:#000000;stroke-width:1;stroke-linecap:round;stroke-miterlimit:4;stroke-dasharray:none;stroke-opacity:1"
       id="path6993"
       sodipodi:type="arc"
       sodipodi:cx="79.129539"
       sodipodi:cy="64.738785"
       sodipodi:rx="12.895877"
       sodipodi:ry="13.452649"
       sodipodi:start="2.3639263"
       sodipodi:end="5.7368973"
       sodipodi:arc-type="arc"
       d="M 69.940546,74.177412 A 12.895877,13.452649 0 0 1 67.000791,60.168168 12.895877,13.452649 0 0 1 77.844469,51.353095 12.895877,13.452649 0 0 1 90.148536,57.749877"
       sodipodi:open="true" />
    <path
       style="opacity:1;fill:none;fill-opacity:1;stroke:#000000;stroke-width:1;stroke-linecap:round;stroke-linejoin:round;stroke-miterlimit:4;stroke-dasharray:none;stroke-opacity:1"
       id="path6993-5"
       sodipodi:type="arc"
       sodipodi:cx="117.51157"
       sodipodi:cy="66.285812"
       sodipodi:rx="12.895877"
       sodipodi:ry="13.452649"
       sodipodi:start="3.7350046"
       sodipodi:end="0.60388392"
       sodipodi:arc-type="arc"
       d="m 106.82041,58.763186 a 12.895877,13.452649 0 0 1 11.63563,-5.893895 12.895877,13.452649 0 0 1 10.68546,7.603823 12.895877,13.452649 0 0 1 -1.01486,13.451701"
       sodipodi:open="true" />
    <path
       style="opacity:1;fill:none;fill-opacity:1;stroke:#000000;stroke-width:0.8;stroke-linecap:round;stroke-miterlimit:4;stroke-dasharray:none;stroke-opacity:1"
       id="path6993-5-5"
       sodipodi:type="arc"
       sodipodi:cx="117.96775"
       sodipodi:cy="65.500732"
       sodipodi:rx="5.0936575"
       sodipodi:ry="5.3332915"
       sodipodi:start="3.6565117"
       sodipodi:end="0.67993515"
       sodipodi:arc-type="arc"
       sodipodi:open="true"
       d="m 113.53457,62.874276 a 5.0936575,5.3332915 0 0 1 4.66906,-2.701113 5.0936575,5.3332915 0 0 1 4.41036,3.141826 5.0936575,5.3332915 0 0 1 -0.68534,5.539011" />
    <path
       style="opacity:1;fill:none;fill-opacity:1;stroke:#000000;stroke-width:0.8;stroke-linecap:round;stroke-miterlimit:4;stroke-dasharray:none;stroke-opacity:1"
       id="path6993-3"
       sodipodi:type="arc"
       sodipodi:cx="78.663017"
       sodipodi:cy="63.813015"
       sodipodi:rx="5.039475"
       sodipodi:ry="5.3925571"
       sodipodi:start="2.3639263"
       sodipodi:end="5.7368973"
       sodipodi:arc-type="arc"
       sodipodi:open="true"
       d="m 75.072125,67.596533 a 5.039475,5.3925571 0 0 1 -1.148803,-5.615671 5.039475,5.3925571 0 0 1 4.237513,-3.533563 5.039475,5.3925571 0 0 1 4.808206,2.56418" />
    <path
       style="opacity:1;fill:none;fill-opacity:1;stroke:#000000;stroke-width:0.8;stroke-linecap:round;stroke-miterlimit:4;stroke-dasharray:none;stroke-opacity:1"
       id="path10696"
       sodipodi:type="arc"
       sodipodi:cx="80.684113"
       sodipodi:cy="83.785049"
       sodipodi:rx="4.812881"
       sodipodi:ry="4.9984632"
       sodipodi:start="4.007276"
       sodipodi:end="6.0388392"
       sodipodi:arc-type="arc"
       d="m 77.564789,79.978528 a 4.812881,4.9984632 0 0 1 4.590599,-0.952662 4.812881,4.9984632 0 0 1 3.198642,3.549946"
       sodipodi:open="true" />
    <path
       style="opacity:1;fill:none;fill-opacity:1;stroke:#000000;stroke-width:0.8;stroke-linecap:round;stroke-miterlimit:4;stroke-dasharray:none;stroke-opacity:1"
       id="path10696-1"
       sodipodi:type="arc"
       sodipodi:cx="-102.59061"
       sodipodi:cy="87.207596"
       sodipodi:rx="7.067915"
       sodipodi:ry="8.4612055"
       sodipodi:start="3.7978365"
       sodipodi:end="5.846853"
       sodipodi:arc-type="arc"
       sodipodi:open="true"
       d="m -108.19044,82.045032 a 7.067915,8.4612055 0 0 1 6.37543,-3.247544 7.067915,8.4612055 0 0 1 5.63011,4.834248"
       transform="scale(-1,1)" />
    <path
       style="fill:none;stroke:#ee5a5a;stroke-width:0.453334;stroke-linecap:butt;stroke-linejoin:miter;stroke-miterlimit:4;stroke-dasharray:none;stroke-opacity:1"
       d="m 113.53459,62.874278 c 0.0438,1.992211 1.07434,3.938918 2.69732,5.095092 1.62299,1.156174 3.79957,1.494169 5.69675,0.884631 0.10076,-0.03237 0.20071,-0.06723 0.29975,-0.104538"
       id="path21679"
       inkscape:path-effect="#path-effect21681"
       inkscape:original-d="m 113.53459,62.874278 c 8.39393,5.97957 5.59619,3.98664 8.39407,5.979723 2.79788,1.993083 0.19998,-0.06954 0.29975,-0.104538" />
    <path
       style="opacity:1;fill:none;fill-opacity:1;stroke:#ee5a5a;stroke-width:2.91788;stroke-linecap:round;stroke-linejoin:round;stroke-miterlimit:4;stroke-dasharray:none;stroke-opacity:1"
       d=""
       id="path25471"
       transform="scale(0.26458333)" />
    <path
       style="opacity:1;fill:none;fill-opacity:1;stroke:#ee7777;stroke-width:0.453334;stroke-linecap:round;stroke-linejoin:round;stroke-miterlimit:4;stroke-dasharray:none;stroke-opacity:1"
       d="m 118.35174,68.724441 c -1.65134,-0.519947 -3.1918,-1.873574 -3.94431,-3.465934 -0.79772,-1.688032 -0.8059,-2.048135 -0.0664,-2.925641 1.01751,-1.207438 2.16785,-1.767087 3.62338,-1.76282 3.76699,0.01102 5.99087,4.265715 3.98308,7.620379 -0.26705,0.446203 -0.46014,0.637316 -0.69606,0.688924 -0.63711,0.139381 -2.23636,0.05393 -2.89967,-0.154908 z"
       id="path25510" />
    <path
       style="opacity:1;fill:#ee7777;fill-opacity:1;stroke:#ee7777;stroke-width:0.453334;stroke-linecap:round;stroke-linejoin:round;stroke-miterlimit:4;stroke-dasharray:none;stroke-opacity:1"
       d="m 119.19297,68.588427 c -1.85946,-0.227514 -3.77877,-1.776391 -4.6538,-3.755588 -0.62796,-1.420377 -0.61009,-1.571096 0.302,-2.54725 1.0103,-1.081255 1.67551,-1.37261 3.12322,-1.367922 1.21145,0.0041 1.86617,0.22803 2.75783,0.943974 0.67861,0.54488 1.37716,1.662216 1.55978,2.494888 0.29925,1.364461 -0.0761,3.2128 -0.80432,3.961156 -0.31071,0.319287 -1.11196,0.414235 -2.28471,0.270742 z"
       id="path26081" />
    <path
       style="opacity:1;fill:#ee7979;fill-opacity:1;stroke:#ee7777;stroke-width:0.453334;stroke-linecap:round;stroke-linejoin:round;stroke-miterlimit:4;stroke-dasharray:none;stroke-opacity:1"
       d="m 74.815727,66.653223 c -1.255605,-1.89593 -1.095053,-4.447322 0.389071,-6.182826 1.818024,-2.125967 4.764479,-2.244136 6.695409,-0.268525 0.295708,0.302555 0.535496,0.610735 0.532859,0.684853 -0.0026,0.07412 -0.454542,0.434373 -1.00423,0.800574 -1.808622,1.204895 -3.992432,3.057152 -5.537629,4.696883 l -0.73624,0.781283 z"
       id="path26157" />
    <path
       style="opacity:1;fill:#6c5d53;fill-opacity:1;stroke:#ffffff;stroke-width:8.253;stroke-linecap:round;stroke-linejoin:round;stroke-miterlimit:4;stroke-dasharray:none;stroke-opacity:1"
       d=""
       id="path31406"
       transform="scale(0.26458333)" />
    <path
       style="opacity:1;fill:#6c5d53;fill-opacity:1;stroke:none;stroke-width:0.453334;stroke-linecap:round;stroke-linejoin:round;stroke-miterlimit:4;stroke-dasharray:none;stroke-opacity:1"
       d="m 95.137763,104.46162 c 0.07609,-0.0336 0.200598,-0.0336 0.276685,0 0.07609,0.0336 0.01384,0.0611 -0.138342,0.0611 -0.152177,0 -0.214432,-0.0275 -0.138343,-0.0611 z"
       id="path32347" />
  </g>
</svg>
