<?xml version="1.0" encoding="UTF-8" standalone="no"?>
<!-- Created with Inkscape (http://www.inkscape.org/) -->

<svg
   width="924mm"
   height="198mm"
   viewBox="0 0 924 198.00001"
   version="1.1"
   id="svg5"
   inkscape:version="1.1.2 (0a00cf5339, 2022-02-04, custom)"
   sodipodi:docname="drawing_banner.svg"
   xmlns:inkscape="http://www.inkscape.org/namespaces/inkscape"
   xmlns:sodipodi="http://sodipodi.sourceforge.net/DTD/sodipodi-0.dtd"
   xmlns="http://www.w3.org/2000/svg"
   xmlns:svg="http://www.w3.org/2000/svg">
  <sodipodi:namedview
     id="namedview7"
     pagecolor="#ffffff"
     bordercolor="#666666"
     borderopacity="1.0"
     inkscape:pageshadow="2"
     inkscape:pageopacity="0.0"
     inkscape:pagecheckerboard="0"
     inkscape:document-units="mm"
     showgrid="false"
     inkscape:zoom="0.91591558"
     inkscape:cx="577.01824"
     inkscape:cy="260.39518"
     inkscape:window-width="1869"
     inkscape:window-height="1052"
     inkscape:window-x="51"
     inkscape:window-y="0"
     inkscape:window-maximized="1"
     inkscape:current-layer="layer1"
     units="mm"
     scale-x="1"
     width="700mm" />
  <defs
     id="defs2">
    <rect
       x="711.32269"
       y="132.39589"
       width="2990.2805"
       height="820.56287"
       id="rect6948" />
    <inkscape:path-effect
       effect="spiro"
       id="path-effect21681"
       is_visible="true"
       lpeversion="1" />
    <inkscape:path-effect
       effect="spiro"
       id="path-effect9851"
       is_visible="true"
       lpeversion="1" />
    <inkscape:path-effect
       effect="bspline"
       id="path-effect6934"
       is_visible="true"
       lpeversion="1"
       weight="33.333333"
       steps="2"
       helper_size="0"
       apply_no_weight="true"
       apply_with_weight="true"
       only_selected="false" />
    <linearGradient
       id="linearGradient1344"
       inkscape:swatch="solid">
      <stop
         style="stop-color:#000000;stop-opacity:1;"
         offset="0"
         id="stop1342" />
    </linearGradient>
    <inkscape:path-effect
       effect="spiro"
       id="path-effect9851-2"
       is_visible="true"
       lpeversion="1" />
  </defs>
  <g
     inkscape:groupmode="layer"
     id="layer2"
     inkscape:label="Layer 2">
    <path
       style="opacity:1;fill:#824925;fill-opacity:1;stroke:#824925;stroke-width:0.8;stroke-linecap:round;stroke-linejoin:round;stroke-miterlimit:4;stroke-dasharray:none;stroke-opacity:1"
       d="M 91.592534,101.41245 C 65.74074,100.79131 43.440662,97.85975 38.369697,94.41578 l -0.682971,-0.46384 0.0369,-2.97197 c 0.05456,-4.39421 0.634791,-8.53751 1.913372,-13.66277 4.826746,-19.34833 18.679101,-35.7606 37.066053,-43.91586 11.540291,-5.11853 24.141249,-6.83183 36.663519,-4.98501 1.17963,0.17397 2.26545,0.35719 2.41294,0.40714 0.17873,0.0605 -0.11312,0.57812 -0.87518,1.55206 -0.62884,0.80368 -1.11171,1.55611 -1.07306,1.67208 0.0386,0.11595 0.2336,0.30932 0.43322,0.42969 0.30077,0.18137 0.45588,0.0964 0.9055,-0.49607 4.42694,-5.83329 11.60023,-9.39823 18.90508,-9.39533 10.58619,0.004 19.54252,6.53997 22.53202,16.44244 0.51757,1.71441 0.555,2.0932 0.555,5.61727 0,3.54173 -0.0352,3.89298 -0.56017,5.59691 -0.66673,2.16387 -1.62907,4.30097 -2.66831,5.92557 -0.8404,1.31375 -0.88249,1.85682 -0.14392,1.85682 0.39124,0 0.69031,-0.3458 1.56188,-1.80589 l 1.078,-1.80589 1.05799,1.49949 c 2.61012,3.69932 5.36818,8.88662 7.20502,13.55107 2.77033,7.03492 4.13772,13.64159 4.55137,21.99042 l 0.13822,2.7896 -1.50453,0.72194 c -6.99339,3.35574 -27.50689,5.83875 -53.38762,6.46221 -9.22128,0.22214 -13.11967,0.21951 -22.897484,-0.0154 z M 88.139957,87.6352 c 2.861937,-0.7855 4.595942,-2.00234 4.595942,-3.22522 0,-1.31251 -1.394569,-1.96241 -5.147051,-2.39866 -2.526437,-0.29371 -7.377533,-0.14151 -8.918387,0.2798 -1.947669,0.53256 -2.681808,1.8742 -1.731359,3.16406 0.761725,1.03374 2.948673,2.11847 5.175065,2.56684 0.968047,0.19496 4.803063,-0.0512 6.02579,-0.38682 z M 95.79104,73.29005 c 2.809573,-5.2713 8.16779,-7.92805 13.46919,-6.67841 2.14952,0.50669 4.00029,1.60898 5.89264,3.50958 1.70279,1.71021 2.15038,1.96487 2.3839,1.35633 0.17377,-0.45285 -0.31952,-1.16566 -1.81776,-2.62665 -5.4985,-5.36177 -14.08866,-4.93421 -19.043349,0.94786 -1.212916,1.43994 -2.600039,3.93565 -2.431523,4.3748 0.259048,0.67506 0.91626,0.2997 1.546902,-0.88351 z M 75.373451,72.04962 c 0,-0.99287 -1.143277,-2.95589 -2.444263,-4.19682 -3.301404,-3.14901 -8.187925,-3.59572 -12.109553,-1.10702 -0.608848,0.38638 -0.970253,0.76236 -0.970253,1.00937 0,0.5635 0.575619,0.70644 1.200218,0.29805 0.294815,-0.19277 1.014331,-0.5795 1.59893,-0.85941 4.605616,-2.20521 10.048312,0.18195 11.579032,5.07854 0.0678,0.21686 0.315116,0.35746 0.628819,0.35746 0.431885,0 0.51707,-0.0956 0.51707,-0.58017 z M 141.99922,49.50469 c 0.67955,0.0286 0.80972,-0.0577 1.37517,-0.91132 3.618,-5.46218 0.93108,-12.54179 -5.48213,-14.44458 -1.57386,-0.46697 -4.3371,-0.43171 -5.98194,0.0763 -0.72209,0.22303 -1.86095,0.75974 -2.53079,1.19268 -1.97305,1.27525 -3.64112,3.48366 -2.95267,3.90915 0.13583,0.0839 0.33533,0.54594 0.44334,1.02666 0.3485,1.55106 1.60972,3.82195 2.91327,5.24548 2.66433,2.90955 6.14439,4.31087 9.93317,3.99978 0.84259,-0.0692 1.86975,-0.11157 2.28258,-0.0942 z"
       id="path26233" />
    <path
       style="opacity:1;fill:#824925;fill-opacity:1;stroke:#824925;stroke-width:0.772022;stroke-linecap:round;stroke-linejoin:round;stroke-miterlimit:4;stroke-dasharray:none;stroke-opacity:1"
       d="m 45.754803,56.35152 c -2.161747,-2.3653 -3.824388,-5.38195 -4.819338,-8.74408 -0.778978,-2.63232 -0.920578,-7.1136 -0.311788,-9.86714 2.024436,-9.15645 9.608103,-16.06586 19.224855,-17.51558 6.800181,-1.02513 13.843548,1.00261 19.051222,5.48472 1.293032,1.11288 3.62294,3.7126 3.62294,4.04249 0,0.0783 -0.252775,0.20562 -0.561726,0.28291 -1.382324,0.34585 -4.718159,1.71449 -7.866917,3.22766 l -3.424174,1.64554 -0.709663,-0.82908 c -2.102091,-2.45582 -6.119474,-3.79174 -9.39591,-3.12446 -4.679667,0.95306 -7.868491,4.74371 -7.913766,9.40734 -0.0209,2.15202 0.432551,3.70478 1.582811,5.42012 l 0.834033,1.24376 -1.394182,1.51644 c -1.689296,1.83744 -4.182081,5.00487 -5.728822,7.27928 L 46.803534,57.499 Z"
       id="path26309" />
    <path
       style="opacity:1;fill:#6c5d53;fill-opacity:1;stroke:#6c5d53;stroke-width:0.772022;stroke-linecap:round;stroke-linejoin:round;stroke-miterlimit:4;stroke-dasharray:none;stroke-opacity:1"
       d="M 96.821182,169.24362 C 79.723278,167.18626 65.879334,161.52608 52.9044,151.28797 c -2.269239,-1.79059 -8.256326,-7.61673 -10.794608,-10.50443 -3.842362,-4.3713 -8.144981,-10.79252 -10.970803,-16.3728 -3.834238,-7.57166 -6.551163,-15.79606 -7.954179,-24.07809 -0.529633,-3.12644 -0.621751,-4.21249 -0.3573,-4.21249 0.08481,0 0.833936,0.51136 1.664729,1.13635 7.765864,5.84214 30.093196,10.39014 58.643248,11.94541 10.811891,0.58898 31.221833,0.58522 42.447783,-0.008 29.01808,-1.53298 50.88832,-5.97777 59.15676,-12.02272 0.77715,-0.56816 1.48347,-0.98947 1.56959,-0.93624 0.17147,0.10597 0.13817,0.41051 -0.4565,4.17458 -1.45683,9.22128 -5.36424,19.9292 -10.40133,28.5039 -9.89859,16.85052 -25.71347,29.74311 -44.32991,36.13859 -5.35227,1.83872 -11.91801,3.3426 -17.44891,3.99668 -2.42002,0.28619 -14.893829,0.43034 -16.851788,0.19474 z"
       id="path32191" />
    <path
       style="opacity:1;fill:#6c5d53;fill-opacity:1;stroke:#6c5d53;stroke-width:0.8;stroke-linecap:round;stroke-linejoin:round;stroke-miterlimit:4;stroke-dasharray:none;stroke-opacity:1"
       d="m 87.322902,108.55932 c -33.474598,-1.68479 -57.098651,-6.55851 -63.433985,-13.08664 -1.115945,-1.1499 -1.520801,-2.30438 -1.211248,-3.45397 0.384084,-1.42638 2.436523,-3.28671 5.206633,-4.71929 2.848653,-1.4732 8.727623,-3.65881 9.029541,-3.35689 0.105887,0.10589 -0.201911,4.57708 -0.562456,8.17048 -0.111157,1.10787 -0.107844,1.95302 0.0085,2.17043 0.262628,0.49072 1.935409,1.53486 3.435454,2.14439 5.974027,2.42746 17.737462,4.17807 37.11686,5.52365 9.508458,0.66021 41.053349,0.72286 51.467769,0.10223 22.1148,-1.31791 37.20377,-3.78863 41.40431,-6.77968 l 0.63383,-0.45133 -0.13085,-3.61246 c -0.072,-1.98685 -0.23291,-4.55059 -0.35765,-5.69719 -0.12473,-1.14659 -0.16926,-2.14226 -0.0989,-2.21258 0.0703,-0.0703 1.15951,0.17363 2.42042,0.54211 6.86808,2.00711 12.02242,4.65638 13.54984,6.96446 1.76477,2.66674 0.0934,5.09972 -5.33362,7.76391 -10.61157,5.20938 -31.94145,8.78186 -59.74725,10.0069 -5.34325,0.2354 -28.608287,0.2225 -33.397179,-0.0185 z"
       id="path32423" />
  </g>
  <g
     inkscape:label="Layer 1"
     inkscape:groupmode="layer"
     id="layer1">
    <path
       style="opacity:1;fill:none;fill-opacity:1;stroke:#000000;stroke-width:1;stroke-miterlimit:4;stroke-dasharray:none;stroke-opacity:1"
       id="path1318"
       sodipodi:type="arc"
       sodipodi:cx="104.52282"
       sodipodi:cy="86.894142"
       sodipodi:rx="82.800003"
       sodipodi:ry="83"
       sodipodi:start="0.06981317"
       sodipodi:end="3.0682888"
       sodipodi:arc-type="arc"
       d="M 187.12113,92.683929 A 82.800003,83 0 0 1 104.66733,169.89402 82.800003,83 0 0 1 21.945178,92.972915"
       sodipodi:open="true" />
    <path
       style="opacity:1;fill:none;stroke:#000000;stroke-width:0.8;stroke-miterlimit:4;stroke-dasharray:none;stroke-opacity:1"
       id="path4270"
       sodipodi:type="arc"
       sodipodi:cx="104.53358"
       sodipodi:cy="92.778648"
       sodipodi:rx="82.571999"
       sodipodi:ry="16.691023"
       sodipodi:start="5.6147242"
       sodipodi:end="3.7716565"
       sodipodi:arc-type="arc"
       d="M 169.33413,82.433902 A 82.571999,16.691023 0 0 1 161.37239,104.88589 82.571999,16.691023 0 0 1 50.035921,105.31802 82.571999,16.691023 0 0 1 37.816237,82.944359"
       sodipodi:open="true" />
    <path
       style="opacity:1;fill:none;stroke:#000000;stroke-width:0.8;stroke-linecap:round;stroke-miterlimit:4;stroke-dasharray:none;stroke-opacity:1"
       id="path4457"
       sodipodi:type="arc"
       sodipodi:cx="103.64048"
       sodipodi:cy="92.96405"
       sodipodi:rx="67.244003"
       sodipodi:ry="9.2080002"
       sodipodi:start="0.17453293"
       sodipodi:end="3.0578168"
       sodipodi:arc-type="arc"
       d="M 169.8629,94.563003 A 67.244003,9.2080002 0 0 1 100.59009,102.16257 67.244003,9.2080002 0 0 1 36.632311,93.734556"
       sodipodi:open="true" />
    <path
       style="opacity:1;fill:none;stroke:#000000;stroke-width:0.8;stroke-linecap:round;stroke-miterlimit:4;stroke-dasharray:none;stroke-opacity:1"
       id="path4561"
       sodipodi:type="arc"
       sodipodi:cx="103.53"
       sodipodi:cy="93.405678"
       sodipodi:rx="66.542999"
       sodipodi:ry="66.343002"
       sodipodi:start="3.1415927"
       sodipodi:end="4.9218285"
       sodipodi:arc-type="arc"
       d="M 36.987,93.405678 A 66.542999,66.343002 0 0 1 61.653134,41.84748 66.542999,66.343002 0 0 1 117.36507,28.512429"
       sodipodi:open="true" />
    <path
       style="opacity:1;fill:none;stroke:#000000;stroke-width:0.8;stroke-linecap:round;stroke-miterlimit:4;stroke-dasharray:none;stroke-opacity:1"
       id="path4561-6"
       sodipodi:type="arc"
       sodipodi:cx="103.53"
       sodipodi:cy="93.405151"
       sodipodi:rx="66.343002"
       sodipodi:ry="66.343002"
       sodipodi:start="5.6286868"
       sodipodi:end="0.017453293"
       sodipodi:arc-type="arc"
       sodipodi:open="true"
       d="M 156.16344,53.018088 A 66.343002,66.343002 0 0 1 169.8629,94.562996" />
    <path
       style="fill:#000000;fill-opacity:1;stroke:#000000;stroke-width:0.8;stroke-linecap:butt;stroke-linejoin:miter;stroke-miterlimit:4;stroke-dasharray:none;stroke-opacity:1"
       d="m 77.983195,83.175611 c 2.696753,-1.28081 11.909082,-0.92205 13.81835,0.538027 1.909267,1.460078 -3.484148,4.021432 -8.090261,3.842162 -4.606113,-0.17927 -8.424842,-3.099379 -5.728089,-4.380189 z"
       id="path6932"
       inkscape:path-effect="#path-effect6934"
       inkscape:original-d="m 71.467343,81.53603 c 9.212595,0.35902 18.424924,0.71779 27.636993,1.07628 -5.39337,2.56173 -10.786787,5.12308 -16.180578,7.68422 -3.818617,-2.91996 -7.637346,-5.84007 -11.456415,-8.7605 z" />
    <path
       style="opacity:1;fill:none;fill-opacity:1;stroke:#000000;stroke-width:1;stroke-linecap:round;stroke-miterlimit:4;stroke-dasharray:none;stroke-opacity:1"
       id="path6993"
       sodipodi:type="arc"
       sodipodi:cx="63.34388"
       sodipodi:cy="42.032425"
       sodipodi:rx="23.801001"
       sodipodi:ry="22.698999"
       sodipodi:start="2.3639263"
       sodipodi:end="5.7368973"
       sodipodi:arc-type="arc"
       d="M 46.38441,57.958462 A 23.801001,22.698999 0 0 1 40.958713,34.320307 23.801001,22.698999 0 0 1 60.972117,19.446408 23.801001,22.698999 0 0 1 83.680855,30.239862"
       sodipodi:open="true" />
    <path
       style="opacity:1;fill:none;fill-opacity:1;stroke:#000000;stroke-width:1;stroke-linecap:round;stroke-linejoin:round;stroke-miterlimit:4;stroke-dasharray:none;stroke-opacity:1"
       id="path6993-5"
       sodipodi:type="arc"
       sodipodi:cx="134.18283"
       sodipodi:cy="44.642761"
       sodipodi:rx="23.801001"
       sodipodi:ry="22.698999"
       sodipodi:start="3.7350046"
       sodipodi:end="0.60388392"
       sodipodi:arc-type="arc"
       d="m 114.45091,31.949642 a 23.801001,22.698999 0 0 1 21.47506,-9.944921 23.801001,22.698999 0 0 1 19.72138,12.830126 23.801001,22.698999 0 0 1 -1.87305,22.697399"
       sodipodi:open="true" />
    <path
       style="opacity:1;fill:none;fill-opacity:1;stroke:#000000;stroke-width:0.8;stroke-linecap:round;stroke-miterlimit:4;stroke-dasharray:none;stroke-opacity:1"
       id="path6993-5-5"
       sodipodi:type="arc"
       sodipodi:cx="135.02481"
       sodipodi:cy="43.318085"
       sodipodi:rx="9.401"
       sodipodi:ry="8.9989996"
       sodipodi:start="3.6565117"
       sodipodi:end="0.67993515"
       sodipodi:arc-type="arc"
       sodipodi:open="true"
       d="m 126.84281,38.886398 a 9.401,8.9989996 0 0 1 8.61735,-4.557658 9.401,8.9989996 0 0 1 8.13988,5.301284 9.401,8.9989996 0 0 1 -1.26488,9.346115" />
    <path
       style="opacity:1;fill:none;fill-opacity:1;stroke:#000000;stroke-width:0.8;stroke-linecap:round;stroke-miterlimit:4;stroke-dasharray:none;stroke-opacity:1"
       id="path6993-3"
       sodipodi:type="arc"
       sodipodi:cx="62.482845"
       sodipodi:cy="40.470337"
       sodipodi:rx="9.3009996"
       sodipodi:ry="9.099"
       sodipodi:start="2.3639263"
       sodipodi:end="5.7368973"
       sodipodi:arc-type="arc"
       sodipodi:open="true"
       d="m 55.855392,46.854363 a 9.3009996,9.099 0 0 1 -2.120264,-9.475465 9.3009996,9.099 0 0 1 7.820876,-5.962272 9.3009996,9.099 0 0 1 8.874163,4.326607" />
    <path
       style="opacity:1;fill:none;fill-opacity:1;stroke:#000000;stroke-width:0.8;stroke-linecap:round;stroke-miterlimit:4;stroke-dasharray:none;stroke-opacity:1"
       id="path10696"
       sodipodi:type="arc"
       sodipodi:cx="66.213043"
       sodipodi:cy="74.16967"
       sodipodi:rx="8.8827906"
       sodipodi:ry="8.4340353"
       sodipodi:start="4.007276"
       sodipodi:end="6.0388392"
       sodipodi:arc-type="arc"
       d="m 60.45593,67.746829 a 8.8827906,8.4340353 0 0 1 8.472541,-1.607452 8.8827906,8.4340353 0 0 1 5.903506,5.989915"
       sodipodi:open="true" />
    <path
       style="opacity:1;fill:none;fill-opacity:1;stroke:#000000;stroke-width:0.8;stroke-linecap:round;stroke-miterlimit:4;stroke-dasharray:none;stroke-opacity:1"
       id="path10696-1"
       sodipodi:type="arc"
       sodipodi:cx="-106.64428"
       sodipodi:cy="79.944633"
       sodipodi:rx="13.044746"
       sodipodi:ry="14.276809"
       sodipodi:start="3.7978365"
       sodipodi:end="5.846853"
       sodipodi:arc-type="arc"
       sodipodi:open="true"
       d="m -116.9795,71.233707 a 13.044746,14.276809 0 0 1 11.76668,-5.479664 13.044746,14.276809 0 0 1 10.391096,8.15695"
       transform="scale(-1,1)" />
    <path
       style="fill:none;stroke:#ee5a5a;stroke-width:0.8;stroke-linecap:butt;stroke-linejoin:miter;stroke-opacity:1;stroke-miterlimit:4;stroke-dasharray:none"
       d="m 126.84281,38.88639 c 0.45863,3.468746 2.49421,6.697634 5.42616,8.607136 2.93196,1.909501 6.70819,2.465686 10.06618,1.482604 0.18578,-0.05439 0.37026,-0.113207 0.55323,-0.17639"
       id="path21679"
       inkscape:path-effect="#path-effect21681"
       inkscape:original-d="m 126.84281,38.88639 c 15.49208,10.08948 10.32849,6.72676 15.49234,10.08974 5.16385,3.36298 0.36908,-0.11733 0.55323,-0.17639" />
    <path
       style="opacity:1;fill:none;fill-opacity:1;stroke:#ee5a5a;stroke-width:2.91788;stroke-linecap:round;stroke-linejoin:round;stroke-miterlimit:4;stroke-dasharray:none;stroke-opacity:1"
       d=""
       id="path25471"
       transform="scale(0.26458333)" />
    <path
       style="opacity:1;fill:none;fill-opacity:1;stroke:#ee7777;stroke-width:0.8;stroke-linecap:round;stroke-linejoin:round;stroke-miterlimit:4;stroke-dasharray:none;stroke-opacity:1"
       d="m 135.73349,48.75752 c -3.04776,-0.87732 -5.89088,-3.16133 -7.27974,-5.84816 -1.4723,-2.84826 -1.48739,-3.45587 -0.12259,-4.93651 1.87795,-2.03734 4.00104,-2.98165 6.68741,-2.97445 6.95248,0.0186 11.05693,7.19765 7.3513,12.85806 -0.49288,0.75289 -0.84926,1.07536 -1.28467,1.16244 -1.17587,0.23518 -4.1275,0.091 -5.35171,-0.26138 z"
       id="path25510" />
    <path
       style="opacity:1;fill:#ee7777;fill-opacity:1;stroke:#ee7777;stroke-width:0.8;stroke-linecap:round;stroke-linejoin:round;stroke-miterlimit:4;stroke-dasharray:none;stroke-opacity:1"
       d="m 137.28608,48.52802 c -3.43188,-0.38389 -6.97421,-2.99735 -8.58918,-6.3369 -1.15899,-2.39664 -1.12601,-2.65095 0.55738,-4.29804 1.86464,-1.82443 3.09237,-2.31604 5.76429,-2.30813 2.2359,0.007 3.44427,0.38476 5.08994,1.59279 1.25246,0.91939 2.54172,2.8047 2.87877,4.20969 0.55231,2.30229 -0.14036,5.42104 -1.48447,6.68376 -0.57346,0.53874 -2.05227,0.69895 -4.21673,0.45683 z"
       id="path26081" />
    <path
       style="opacity:1;fill:#ee7979;fill-opacity:1;stroke:#ee7777;stroke-width:0.8;stroke-linecap:round;stroke-linejoin:round;stroke-miterlimit:4;stroke-dasharray:none;stroke-opacity:1"
       d="m 55.382167,45.2627 c -2.317382,-3.19905 -2.021062,-7.50408 0.718079,-10.43244 3.355399,-3.5872 8.793459,-3.78659 12.35724,-0.45309 0.545767,0.51051 0.988325,1.03051 0.983459,1.15557 -0.0049,0.12506 -0.838914,0.73293 -1.853435,1.35083 -3.338044,2.03305 -7.368548,5.15841 -10.220407,7.92517 l -1.358826,1.31828 z"
       id="path26157" />
    <path
       style="opacity:1;fill:#6c5d53;fill-opacity:1;stroke:#ffffff;stroke-width:8.253;stroke-linecap:round;stroke-linejoin:round;stroke-miterlimit:4;stroke-dasharray:none;stroke-opacity:1"
       d=""
       id="path31406"
       transform="scale(0.26458333)" />
    <path
       style="opacity:1;fill:#6c5d53;fill-opacity:1;stroke:none;stroke-width:0.8;stroke-linecap:round;stroke-linejoin:round;stroke-miterlimit:4;stroke-dasharray:none;stroke-opacity:1"
       d="m 92.889098,109.05778 c 0.14043,-0.0567 0.370229,-0.0567 0.510659,0 0.140433,0.0567 0.02553,0.10303 -0.255328,0.10303 -0.280863,0 -0.395764,-0.0464 -0.255331,-0.10303 z"
       id="path32347" />
    <text
       xml:space="preserve"
       transform="matrix(0.26458333,0,0,0.26458333,15.235628,-50.51861)"
       id="text6946"
       style="font-style:normal;font-variant:normal;font-weight:normal;font-stretch:normal;font-size:693.333px;line-height:1.25;font-family:'FantasqueSansMono Nerd Font Mono';-inkscape-font-specification:'FantasqueSansMono Nerd Font Mono, Normal';font-variant-ligatures:normal;font-variant-caps:normal;font-variant-numeric:normal;font-variant-east-asian:normal;white-space:pre;shape-inside:url(#rect6948);fill:#e3dedb;fill-opacity:1;stroke:none"><tspan
         x="711.32227"
         y="777.6566"
         id="tspan15039">DURATER</tspan></text>
  </g>
</svg>
